# xmcd
#
# Track frame offsets: 
#        150
#        12968
#        33423
#        50283
#        68123
#        86285
#        103238
#        121328
#        138243
#        152968
#        171048
#        192790
#
# Disc length: 2764 seconds
#
# Revision: 0
# Processed by: cddbd v1.5.1PL0 Copyright (c) Steve Scherf et al.
# Submitted via: ExactAudioCopy v0.95a5
#
DISCID=960aca0c
DTITLE=Cori and Merlynn - Out Of The Blue
DYEAR=1900
DGENRE=Country
TTITLE0=Get Back On That Pony
TTITLE1=Gallagher's Well
TTITLE2=The Loneliest Lonely
TTITLE3=Just Like A Man
TTITLE4=The Builder
TTITLE5=Out Of The Blue
TTITLE6=David's Eyes
TTITLE7=Stone On Stone
TTITLE8=How Beautiful The Dance
TTITLE9=Old Singer Sewing Machine
TTITLE10=Song Of The Heart
TTITLE11=Ride A Blue Pony
EXTD=
EXTT0=
EXTT1=
EXTT2=
EXTT3=
EXTT4=
EXTT5=
EXTT6=
EXTT7=
EXTT8=
EXTT9=
EXTT10=
EXTT11=
PLAYORDER=
